<svg xmlns="http://www.w3.org/2000/svg" viewBox="0 0 64 64" width="64" height="64">
    <defs>
        <linearGradient id="bursar-bg" x1="0%" y1="0%" x2="100%" y2="100%">
            <stop offset="0%" stop-color="#1E202A"/>
            <stop offset="100%" stop-color="#0B0C10"/>
        </linearGradient>
        <linearGradient id="bursar-accent" x1="0%" y1="0%" x2="100%" y2="100%">
            <stop offset="0%" stop-color="#FF7A45"/>
            <stop offset="100%" stop-color="#FF5B22"/>
        </linearGradient>
        <filter id="glow" x="-20%" y="-20%" width="140%" height="140%">
            <feGaussianBlur stdDeviation="1.5" result="blur" />
            <feComposite in="SourceGraphic" in2="blur" operator="over" />
        </filter>
    </defs>
    <!-- Rounded Background Container -->
    <rect x="2" y="2" width="60" height="60" rx="16" fill="url(#bursar-bg)" stroke="rgba(255, 91, 34, 0.4)" stroke-width="2"/>
    <!-- Centered Wallet Icon -->
    <g transform="translate(14, 14) scale(1.5)" fill="none" stroke="url(#bursar-accent)" stroke-width="2.2" stroke-linecap="round" stroke-linejoin="round" filter="url(#glow)">
        <path d="M19 7V4a1 1 0 0 0-1-1H5a2 2 0 0 0-2 2v14a2 2 0 0 0 2 2h14a1 1 0 0 0 1-1v-3"/>
        <path d="M3 7h15a2 2 0 0 1 2 2v6a2 2 0 0 1-2 2H3"/>
        <path d="M16 12h.01"/>
    </g>
</svg>
